<?xml version="1.0" standalone="no"?>
<!DOCTYPE svg PUBLIC "-//W3C//DTD SVG 20010904//EN"
 "http://www.w3.org/TR/2001/REC-SVG-20010904/DTD/svg10.dtd">
<svg version="1.0" xmlns="http://www.w3.org/2000/svg"
 width="309.000000pt" height="110.000000pt" viewBox="0 0 309.000000 110.000000"
 preserveAspectRatio="xMidYMid meet">

<g transform="translate(0.000000,110.000000) scale(0.100000,-0.100000)"
fill="#000000" stroke="none">
<path d="M0 550 l0 -550 1545 0 1545 0 0 550 0 550 -1545 0 -1545 0 0 -550z
m1343 473 c-7 -2 -21 -2 -30 0 -10 3 -4 5 12 5 17 0 24 -2 18 -5z m-548 -13
c-27 -12 -43 -12 -25 0 8 5 22 9 30 9 10 0 8 -3 -5 -9z m564 -3 c21 -1 38 -6
38 -11 -1 -5 4 -11 12 -14 9 -3 11 0 6 9 -4 8 5 2 20 -13 32 -30 35 -43 39
-142 2 -65 0 -72 -27 -100 -16 -17 -25 -25 -21 -17 4 9 2 12 -7 9 -8 -3 -14
-11 -14 -18 0 -7 -7 -15 -15 -17 -13 -4 -13 -3 0 7 12 9 10 10 -9 4 -62 -17
-120 -4 -171 40 l-25 21 20 -24 c11 -13 38 -32 60 -42 22 -10 34 -19 27 -19
-35 0 -103 54 -109 88 -20 109 -16 136 29 189 21 24 24 31 9 18 -13 -11 -32
-33 -42 -50 -11 -16 -19 -24 -19 -18 0 24 70 92 87 86 10 -4 14 -2 10 4 -5 7
1 9 15 6 19 -4 20 -3 8 6 -12 9 -9 10 12 5 15 -3 45 -7 67 -7z m-409 -23 c0
-2 -9 0 -20 6 -11 6 -20 13 -20 16 0 2 9 0 20 -6 11 -6 20 -13 20 -16z m538
-79 c-3 -3 -9 2 -12 12 -6 14 -5 15 5 6 7 -7 10 -15 7 -18z m-331 -77 c-2 -13
-4 -3 -4 22 0 25 2 35 4 23 2 -13 2 -33 0 -45z m340 10 c-2 -13 -4 -5 -4 17
-1 22 1 32 4 23 2 -10 2 -28 0 -40z m-813 -34 c3 -8 2 -12 -4 -9 -6 3 -10 10
-10 16 0 14 7 11 14 -7z m319 -19 c-3 -9 -8 -14 -10 -11 -3 3 -2 9 2 15 9 16
15 13 8 -4z m171 -1 c3 -8 2 -12 -4 -9 -6 3 -10 10 -10 16 0 14 7 11 14 -7z
m193 -100 c-3 -3 -12 -4 -19 -1 -8 3 -5 6 6 6 11 1 17 -2 13 -5z"/>
<path d="M1435 960 c10 -11 20 -20 23 -20 3 0 -3 9 -13 20 -10 11 -20 20 -23
20 -3 0 3 -9 13 -20z"/>
<path d="M1445 754 c-9 -15 -12 -23 -6 -20 11 7 35 46 28 46 -3 0 -12 -12 -22
-26z"/>
</g>
</svg>
